<svg width="64" height="62" viewBox="0 0 64 62" fill="none" xmlns="http://www.w3.org/2000/svg">
<g clip-path="url(#clip0)">
<g filter="url(#filter0_d)">
<path d="M32.5 51C46.3071 51 57.5 39.8071 57.5 26C57.5 12.1929 46.3071 1 32.5 1C18.6929 1 7.5 12.1929 7.5 26C7.5 39.8071 18.6929 51 32.5 51Z" fill="white"/>
<path d="M32.1747 1H32.1594C18.3779 1 7.16663 12.2121 7.16663 25.9992C7.16663 31.4661 8.93114 36.5363 11.9271 40.6524L8.8134 49.9419L18.4215 46.8702C22.3731 49.4863 27.0908 51 32.1747 51C45.9569 51 57.1666 39.7855 57.1666 26C57.1666 12.2129 45.9569 1 32.1747 1ZM46.7199 36.3024C46.119 38.0065 43.7231 39.4177 41.8134 39.8306C40.5053 40.1089 38.8013 40.3298 33.0569 37.9484C25.7094 34.9065 20.9779 27.4403 20.611 26.954C20.2578 26.4694 17.6424 23.0008 17.6424 19.4145C17.6424 15.8282 19.4642 14.079 20.1997 13.329C20.8021 12.7121 21.8013 12.4347 22.7561 12.4347C23.0658 12.4347 23.3432 12.4492 23.594 12.4621C24.3287 12.4927 24.6957 12.5379 25.1803 13.6976C25.7828 15.1516 27.2521 18.7387 27.4287 19.1056C27.6045 19.4734 27.7819 19.9726 27.5311 20.4573C27.2957 20.9573 27.0908 21.1798 26.7239 21.6048C26.3553 22.0298 26.0021 22.3548 25.636 22.8097C25.2981 23.2065 24.915 23.6331 25.3424 24.3677C25.769 25.0895 27.2376 27.4839 29.3973 29.4081C32.1884 31.8919 34.4513 32.6863 35.2602 33.0242C35.8618 33.275 36.5828 33.2145 37.0239 32.7452C37.5819 32.1419 38.2731 31.1435 38.9779 30.1589C39.4771 29.4516 40.1094 29.3645 40.7699 29.6137C41.4465 29.8484 45.0182 31.6129 45.7529 31.9806C46.486 32.3484 46.9715 32.5242 47.1473 32.8331C47.3231 33.1435 47.3231 34.5976 46.7199 36.3024Z" fill="#7FD371"/>
<path d="M7.5 25.9992C7.5 31.4661 9.26452 36.5363 12.2605 40.6524L9.14677 49.9419L18.7548 46.8702C22.7065 49.4863 27.4242 51 32.5081 51C46.2903 51 57.5 39.7855 57.5 26C57.5 12.2129 46.2903 1 32.5081 1H32.4927L7.5 25.9992ZM47.0532 36.3024C46.4524 38.0065 44.0565 39.4177 42.1468 39.8306C40.8387 40.1089 39.1347 40.3298 33.3903 37.9484C26.0427 34.9065 21.3113 27.4403 20.9444 26.954C20.5911 26.4694 17.9758 23.0008 17.9758 19.4145C17.9758 15.8282 19.7976 14.079 20.5331 13.329C21.1355 12.7121 22.1347 12.4347 23.0895 12.4347C23.3992 12.4347 23.6766 12.4492 23.9274 12.4621C24.6621 12.4927 25.029 12.5379 25.5137 13.6976C26.1161 15.1516 27.5855 18.7387 27.7621 19.1056C27.9379 19.4734 28.1153 19.9726 27.8645 20.4573C27.629 20.9573 27.4242 21.1798 27.0573 21.6048C26.6887 22.0298 26.3355 22.3548 25.9694 22.8097C25.6315 23.2065 25.2484 23.6331 25.6758 24.3677C26.1024 25.0895 27.571 27.4839 29.7306 29.4081C32.5218 31.8919 34.7847 32.6863 35.5935 33.0242C36.1952 33.275 36.9161 33.2145 37.3573 32.7452C37.9153 32.1419 38.6065 31.1435 39.3113 30.1589C39.8105 29.4516 40.4427 29.3645 41.1032 29.6137C41.7798 29.8484 45.3516 31.6129 46.0863 31.9806C46.8194 32.3484 47.3048 32.5242 47.4806 32.8331C47.6565 33.1435 47.6565 34.5976 47.0532 36.3024Z" fill="#6DBC61"/>
<path d="M40.1674 2.31836C46.5416 7.76755 50.7021 16.0966 50.7021 23.1482C50.7021 27.0321 49.4367 30.6659 47.2392 33.7877C47.2101 34.4321 47.0674 35.3216 46.719 36.3022C46.1182 38.0062 43.7222 39.4175 41.8125 39.8304C41.4593 39.9054 41.073 39.9748 40.59 39.9901C36.4061 42.599 31.2206 44.1433 25.6037 44.1433C20.5456 44.1433 15.84 42.8877 11.898 40.7329L8.81334 49.9417L18.4214 46.8699C22.373 49.4861 27.0908 50.9998 32.1746 50.9998C45.9569 50.9998 57.1666 39.7853 57.1666 25.9998C57.1666 15.0095 50.0392 5.6611 40.1674 2.31836Z" fill="#549B45"/>
<path d="M40.769 29.6146C40.9368 29.6727 41.2787 29.8243 41.711 30.0235L25.0045 13.3179C25.0626 13.4284 25.1215 13.555 25.1803 13.6985C25.7827 15.1525 27.2521 18.7396 27.4287 19.1066C27.6045 19.4743 27.7819 19.9735 27.5311 20.4582C27.2956 20.9582 27.0908 21.1808 26.7239 21.6058C26.3553 22.0308 26.0021 22.3558 25.636 22.8106C25.2981 23.2074 24.915 23.634 25.3424 24.3687C25.769 25.0904 27.2376 27.4848 29.3973 29.409C32.1884 31.8929 34.4513 32.6872 35.2602 33.0251C35.8618 33.2759 36.5827 33.2154 37.0239 32.7461C37.5819 32.1429 38.2731 31.1445 38.9779 30.1598C39.4763 29.4525 40.1094 29.3654 40.769 29.6146Z" fill="#549B45"/>
<path d="M17.6441 19.437L17.4796 19.6023L17.6594 19.7814C17.6529 19.6669 17.6441 19.5523 17.6441 19.437Z" fill="#5CAA4F"/>
</g>
</g>
<defs>
<filter id="filter0_d" x="1.16663" y="0" width="62.3334" height="62" filterUnits="userSpaceOnUse" color-interpolation-filters="sRGB">
<feFlood flood-opacity="0" result="BackgroundImageFix"/>
<feColorMatrix in="SourceAlpha" type="matrix" values="0 0 0 0 0 0 0 0 0 0 0 0 0 0 0 0 0 0 127 0" result="hardAlpha"/>
<feOffset dy="5"/>
<feGaussianBlur stdDeviation="3"/>
<feColorMatrix type="matrix" values="0 0 0 0 0 0 0 0 0 0 0 0 0 0 0 0 0 0 0.21 0"/>
<feBlend mode="normal" in2="BackgroundImageFix" result="effect1_dropShadow"/>
<feBlend mode="normal" in="SourceGraphic" in2="effect1_dropShadow" result="shape"/>
</filter>
<clipPath id="clip0">
<rect width="63" height="62" fill="white" transform="translate(0.5)"/>
</clipPath>
</defs>
</svg>
