<svg width="63" height="62" viewBox="0 0 63 62" fill="none" xmlns="http://www.w3.org/2000/svg">
<g clip-path="url(#clip0)">
<g filter="url(#filter0_d)">
<path d="M31.8333 51C45.6404 51 56.8333 39.8071 56.8333 26C56.8333 12.1929 45.6404 1 31.8333 1C18.0262 1 6.83333 12.1929 6.83333 26C6.83333 39.8071 18.0262 51 31.8333 51Z" fill="#4D76A1"/>
<path fill-rule="evenodd" clip-rule="evenodd" d="M30.889 36.9648H32.8512C32.8512 36.9648 33.4439 36.8997 33.7465 36.5735C34.025 36.274 34.0161 35.7116 34.0161 35.7116C34.0161 35.7116 33.9778 33.0787 35.1998 32.691C36.4043 32.3091 37.9512 35.2357 39.5907 36.3609C40.8305 37.2126 41.7726 37.0258 41.7726 37.0258L46.1565 36.9648C46.1565 36.9648 48.4498 36.8235 47.3624 35.0204C47.2733 34.8729 46.7291 33.6866 44.1029 31.2489C41.3542 28.6975 41.7223 29.1102 45.0334 24.697C47.05 22.0093 47.8562 20.3684 47.6044 19.6656C47.3642 18.9962 45.8811 19.1731 45.8811 19.1731L40.9451 19.2039C40.9451 19.2039 40.5792 19.154 40.3078 19.3162C40.0426 19.4753 39.8719 19.8461 39.8719 19.8461C39.8719 19.8461 39.0907 21.9259 38.0488 23.6947C35.8508 27.427 34.972 27.624 34.6128 27.3922C33.7772 26.8521 33.9858 25.2224 33.9858 24.0646C33.9858 20.4477 34.5344 18.9396 32.9176 18.5492C32.381 18.4196 31.9862 18.334 30.614 18.3202C28.8528 18.3019 27.3621 18.3255 26.5181 18.7391C25.9566 19.014 25.5234 19.6268 25.7872 19.662C26.1134 19.7057 26.8523 19.8612 27.244 20.3947C27.7498 21.0827 27.732 22.6283 27.732 22.6283C27.732 22.6283 28.0226 26.886 27.0533 27.415C26.3879 27.7777 25.4753 27.0371 23.5157 23.651C22.5117 21.9166 21.7536 19.9994 21.7536 19.9994C21.7536 19.9994 21.6075 19.6411 21.3468 19.4494C21.0304 19.2173 20.5883 19.1433 20.5883 19.1433L15.8978 19.174C15.8978 19.174 15.1937 19.1936 14.9352 19.4998C14.7053 19.7721 14.9169 20.3354 14.9169 20.3354C14.9169 20.3354 18.5891 28.9266 22.747 33.2561C26.5595 37.2255 30.889 36.9648 30.889 36.9648Z" fill="white"/>
</g>
</g>
<defs>
<filter id="filter0_d" x="0.833328" y="0" width="62" height="62" filterUnits="userSpaceOnUse" color-interpolation-filters="sRGB">
<feFlood flood-opacity="0" result="BackgroundImageFix"/>
<feColorMatrix in="SourceAlpha" type="matrix" values="0 0 0 0 0 0 0 0 0 0 0 0 0 0 0 0 0 0 127 0" result="hardAlpha"/>
<feOffset dy="5"/>
<feGaussianBlur stdDeviation="3"/>
<feColorMatrix type="matrix" values="0 0 0 0 0 0 0 0 0 0 0 0 0 0 0 0 0 0 0.21 0"/>
<feBlend mode="normal" in2="BackgroundImageFix" result="effect1_dropShadow"/>
<feBlend mode="normal" in="SourceGraphic" in2="effect1_dropShadow" result="shape"/>
</filter>
<clipPath id="clip0">
<rect width="62" height="62" fill="white" transform="translate(0.833328)"/>
</clipPath>
</defs>
</svg>
