<svg width="101" height="100" viewBox="0 0 101 100" fill="none" xmlns="http://www.w3.org/2000/svg">
<g clip-path="url(#clip0)">
<path d="M49.0875 0.323242L4.30842 21.9408C3.7469 22.2119 3.39026 22.7803 3.39026 23.4037V76.5967C3.39026 77.2201 3.74709 77.7885 4.30842 78.0596L49.0875 99.6772C49.9799 100.108 51.0201 100.108 51.9125 99.6772L96.6916 78.0596C97.2532 77.7885 97.6098 77.2201 97.6098 76.5967V23.4037C97.6098 22.7803 97.253 22.2119 96.6916 21.9408L51.9125 0.323242C51.0201 -0.107422 49.9799 -0.107422 49.0875 0.323242Z" fill="#FFE17D"/>
<path d="M3.66038 22.5143C3.48967 22.7742 3.39026 23.0803 3.39026 23.4035V76.5965C3.39026 77.2199 3.74709 77.7883 4.30842 78.0594L49.0875 99.6768C49.5336 99.8922 50.0168 99.9998 50.5 99.9998V45.1266L3.66038 22.5143Z" fill="#FFC350"/>
<path d="M97.3396 22.5143C97.5104 22.7742 97.6098 23.0803 97.6098 23.4035V76.5965C97.6098 77.2199 97.2529 77.7883 96.6916 78.0594L51.9125 99.6768C51.4664 99.8922 50.9832 100 50.5 100V45.1266L97.3396 22.5143Z" fill="#FFD164"/>
<path d="M16.7904 73.7611C16.5541 73.7611 16.3129 73.7088 16.0861 73.5994L9.17265 70.2617C8.36366 69.8715 8.02577 68.9006 8.41601 68.0932C8.80468 67.2857 9.7787 66.9494 10.5846 67.3365L17.498 70.6744C18.307 71.0647 18.6449 72.0355 18.2547 72.843C17.9756 73.4232 17.3949 73.7611 16.7904 73.7611Z" fill="#FFE17D"/>
<path d="M23.1535 69.6192C22.9172 69.6192 22.676 69.5668 22.4492 69.4574L9.18202 63.0531C8.3746 62.6629 8.03515 61.692 8.42538 60.8846C8.81405 60.0787 9.78964 59.7408 10.5939 60.1279L23.8609 66.5322C24.6684 66.9225 25.0078 67.8934 24.6176 68.7008C24.3387 69.2811 23.758 69.6192 23.1535 69.6192Z" fill="#FFF6D8"/>
<path d="M81.4666 30.151L34.4623 7.44336L22.0717 13.4492L69.1814 36.192L81.4666 30.151Z" fill="#FF8087"/>
<path d="M69.1815 36.192V53.8106C69.1815 54.4094 69.8075 54.8024 70.3469 54.542L80.5485 49.6172C81.11 49.3461 81.4667 48.7778 81.4667 48.1543V30.1512L69.1815 36.192Z" fill="#E6646E"/>
</g>
<defs>
<clipPath id="clip0">
<rect width="100" height="100" fill="white" transform="translate(0.5)"/>
</clipPath>
</defs>
</svg>
