<svg width="101" height="100" viewBox="0 0 101 100" fill="none" xmlns="http://www.w3.org/2000/svg">
<g clip-path="url(#clip0)">
<path d="M52.6354 6.66354L57.9356 12.6191L65.1115 9.14503C66.6507 8.39976 68.4956 9.16394 69.0571 10.7794L71.6748 18.31L79.6338 17.8466C81.341 17.7472 82.7531 19.1591 82.6535 20.8664L82.1901 28.8253L89.7207 31.443C91.336 32.0046 92.1002 33.8493 91.3551 35.3887L87.8811 42.5645L93.8366 47.8647C95.1141 49.0018 95.1141 50.9986 93.8366 52.1354L87.8811 57.4356L91.3551 64.6114C92.1004 66.1507 91.3362 67.9955 89.7207 68.5569L82.1901 71.1746L82.6535 79.1336C82.7529 80.8408 81.341 82.2529 79.6338 82.1533L71.6748 81.6899L69.0571 89.2205C68.4956 90.8358 66.6509 91.6 65.1115 90.8549L57.9356 87.3808L52.6354 93.3364C51.4984 94.6138 49.5016 94.6138 48.3648 93.3364L43.0646 87.3808L35.8887 90.8549C34.3495 91.6002 32.5046 90.836 31.9431 89.2205L29.3253 81.6899L21.3664 82.1533C19.6591 82.2527 18.2471 80.8408 18.3467 79.1336L18.8101 71.1746L11.2795 68.5569C9.66418 67.9953 8.89999 66.1507 9.64506 64.6114L13.1191 57.4356L7.16357 52.1354C5.88611 50.9983 5.88611 49.0016 7.16357 47.8647L13.1191 42.5645L9.64506 35.3887C8.89979 33.8495 9.66398 32.0046 11.2795 31.443L18.8101 28.8253L18.3467 20.8664C18.2473 19.1591 19.6591 17.747 21.3664 17.8466L29.3253 18.31L31.9431 10.7794C32.5046 9.16415 34.3493 8.39996 35.8887 9.14503L43.0646 12.6191L48.3648 6.66354C49.5016 5.38608 51.4984 5.38608 52.6354 6.66354Z" fill="#FFCF5D"/>
<path d="M93.8364 47.8645L87.8809 42.5643L91.3549 35.3885C92.1002 33.8492 91.336 32.0043 89.7207 31.4428L82.1901 28.8251L82.6535 20.8661C82.7529 19.1589 81.341 17.747 79.6338 17.8464L71.6748 18.3098L69.0571 10.7792C68.4956 9.16391 66.6509 8.39972 65.1115 9.14499L62.5322 10.3937L65.9728 20.2919C66.8591 22.8416 69.3318 24.4941 72.0253 24.3359L76.4197 24.0802L76.1638 28.4746C76.0068 31.1695 77.6581 33.6408 80.2078 34.5271L84.3658 35.9724L82.4477 39.9343C81.2714 42.3639 81.8513 45.279 83.8678 47.0736L87.1559 49.9999L83.8678 52.9263C81.8513 54.7208 81.2714 57.6359 82.4477 60.0655L84.3658 64.0275L80.2078 65.4728C77.6581 66.3591 76.0068 68.8305 76.1638 71.5253L76.4197 75.9196L72.0253 75.6639C69.3296 75.5096 66.8591 77.1585 65.9728 79.7082L64.5276 83.8657L60.5656 81.9478C58.1358 80.7715 55.2207 81.3514 53.4261 83.3679L50.5 86.6561L47.5736 83.3677C45.7791 81.3512 42.8636 80.7711 40.4342 81.9476L36.4722 83.8655L35.027 79.708C34.1406 77.1583 31.6698 75.5096 28.9744 75.6637L18.5131 76.2728L18.3465 79.1333C18.2471 80.8406 19.6589 82.2526 21.3662 82.1532L29.3251 81.6899L31.9428 89.2204C32.5044 90.8359 34.3491 91.5999 35.8885 90.8549L43.0644 87.381L48.3646 93.3365C49.5016 94.614 51.4984 94.614 52.6352 93.3365L57.9354 87.381L65.1113 90.8549C66.6505 91.6001 68.4954 90.8359 69.0569 89.2204L71.6746 81.6899L79.6336 82.1532C81.3408 82.2526 82.7529 80.8408 82.6533 79.1333L82.1899 71.1744L89.7205 68.5567C91.3358 67.9951 92.1 66.1504 91.3547 64.611L87.8807 57.4351L93.8362 52.1349C95.1139 50.9983 95.1139 49.0015 93.8364 47.8645Z" fill="#FFB545"/>
<path d="M50.5 78.7184C66.3608 78.7184 79.2185 65.8607 79.2185 49.9999C79.2185 34.1391 66.3608 21.2814 50.5 21.2814C34.6392 21.2814 21.7815 34.1391 21.7815 49.9999C21.7815 65.8607 34.6392 78.7184 50.5 78.7184Z" fill="#FFB545"/>
<path d="M38.3553 44.0644C38.3553 44.898 37.6799 45.5732 36.8463 45.5732H32.8227C31.9895 45.5732 31.3139 44.898 31.3139 44.0644C31.3139 43.2308 31.9893 42.5555 32.8227 42.5555H33.3257V38.4461C32.795 38.6324 32.1805 38.5143 31.7557 38.0897C31.1666 37.5004 31.1666 36.5453 31.7557 35.9559L33.7678 33.9443C34.1992 33.5125 34.8485 33.3839 35.4119 33.6171C35.9756 33.8507 36.3433 34.401 36.3433 35.0111V42.5555H36.8461C37.6799 42.5555 38.3553 43.2308 38.3553 44.0644Z" fill="#3F5F94"/>
<path d="M49.1312 38.0289V41.0466C49.1312 43.5424 47.1008 45.5732 44.6044 45.5732C42.1084 45.5732 40.0781 43.5424 40.0781 41.0466V38.0289C40.0781 35.533 42.1084 33.5024 44.6044 33.5024C47.1006 33.5022 49.1312 35.5326 49.1312 38.0289ZM46.1135 38.0289C46.1135 37.1967 45.4366 36.5201 44.6044 36.5201C43.7726 36.5201 43.0958 37.1967 43.0958 38.0289V41.0466C43.0958 41.8788 43.7726 42.5555 44.6044 42.5555C45.4366 42.5555 46.1135 41.8788 46.1135 41.0466V38.0289Z" fill="#3F5F94"/>
<path d="M59.9114 38.0289V41.0466C59.9114 43.5424 57.8811 45.5732 55.3847 45.5732C52.8887 45.5732 50.8583 43.5424 50.8583 41.0466V38.0289C50.8583 35.533 52.8887 33.5024 55.3847 33.5024C57.8811 33.5022 59.9114 35.5326 59.9114 38.0289ZM56.8937 38.0289C56.8937 37.1967 56.2169 36.5201 55.3847 36.5201C54.5529 36.5201 53.876 37.1967 53.876 38.0289V41.0466C53.876 41.8788 54.5529 42.5555 55.3847 42.5555C56.2169 42.5555 56.8937 41.8788 56.8937 41.0466V38.0289Z" fill="#3F5F94"/>
<path d="M69.4958 35.7422L64.4668 44.7945C64.1909 45.2907 63.6765 45.5706 63.1463 45.5706C62.8986 45.5706 62.6473 45.5098 62.4149 45.3811C61.6865 44.9762 61.4241 44.0577 61.8286 43.3293L66.8577 34.2766C67.2624 33.5481 68.1807 33.2857 68.9095 33.6903C69.638 34.0951 69.9002 35.0136 69.4958 35.7422ZM61.6386 35.0092C61.6386 34.1756 62.3139 33.5004 63.1475 33.5004C63.9807 33.5004 64.6565 34.1756 64.6565 35.0092C64.6565 35.8426 63.9807 36.5181 63.1475 36.5181C62.3141 36.5181 61.6386 35.8424 61.6386 35.0092ZM66.6682 44.0621C66.6682 43.2289 67.3437 42.5535 68.1773 42.5535C69.0105 42.5535 69.6861 43.2289 69.6861 44.0621C69.6861 44.8957 69.0105 45.571 68.1773 45.571C67.3437 45.571 66.6682 44.8955 66.6682 44.0621Z" fill="#3F5F94"/>
<path d="M97.4819 68.1087H3.51811C1.85131 68.1087 0.5 66.7573 0.5 65.0905V53.0181C0.5 51.3513 1.85131 50 3.51811 50H97.4819C99.1487 50 100.5 51.3513 100.5 53.0181V65.0905C100.5 66.7573 99.1487 68.1087 97.4819 68.1087Z" fill="#3F5F94"/>
<path d="M14.4541 59.0541C14.4541 60.6666 13.8261 62.1819 12.6861 63.3219C11.5461 64.462 10.0306 65.0897 8.4187 65.0897C5.09073 65.0897 2.38309 62.3823 2.38309 59.0541C2.38309 55.7264 5.09073 53.0189 8.4187 53.0189H9.52594C10.3595 53.0189 11.035 53.6942 11.035 54.5276C11.035 55.3614 10.3597 56.0366 9.52594 56.0366H8.4187C6.75451 56.0366 5.40099 57.3905 5.40099 59.0541C5.40099 60.7183 6.75471 62.072 8.4187 62.072C9.22453 62.072 9.98228 61.758 10.5527 61.1881C10.7418 60.9986 10.9032 60.7889 11.0336 60.5632H10.3312C9.49777 60.5632 8.82212 59.8879 8.82212 59.0541C8.82212 58.2207 9.49757 57.5455 10.3312 57.5455H12.9455C13.7791 57.5455 14.4541 58.2209 14.4541 59.0541Z" fill="#FFCF5D"/>
<path d="M25.9175 54.5276V59.9897C25.9175 62.8022 23.6163 65.0897 20.7875 65.0897C17.9583 65.0897 15.6573 62.8022 15.6573 59.9897V54.5276C15.6573 53.6942 16.3328 53.0189 17.1662 53.0189C17.9994 53.0189 18.6752 53.6942 18.6752 54.5276V59.9897C18.6752 61.1378 19.6227 62.072 20.7877 62.072C21.9525 62.072 22.9002 61.1378 22.9002 59.9897V54.5276C22.9002 53.6942 23.5756 53.0189 24.4092 53.0189C25.2418 53.0189 25.9175 53.6944 25.9175 54.5276Z" fill="#FFCF5D"/>
<path d="M35.4783 64.9944C35.3036 65.06 35.1247 65.0908 34.9487 65.0908C34.3378 65.0908 33.763 64.7173 33.536 64.1115L33.3372 63.5817H29.7702L29.5716 64.1115C29.2787 64.8918 28.4094 65.2864 27.6288 64.9944C26.8489 64.702 26.4531 63.8324 26.7459 63.052L30.1408 53.9986C30.3616 53.4099 30.9247 53.02 31.5535 53.02C32.1823 53.02 32.7453 53.4099 32.9662 53.9986L36.361 63.052C36.6535 63.8322 36.2583 64.7018 35.4783 64.9944ZM32.205 60.564L31.5533 58.8256L30.9014 60.564H32.205Z" fill="#FFCF5D"/>
<path d="M46.6835 62.5196C47.27 63.1111 47.266 64.0666 46.6744 64.6534C46.3801 64.9449 45.996 65.0908 45.6121 65.0908C45.2237 65.0908 44.8354 64.9421 44.5406 64.6443L41.9907 62.0731H41.1861V63.5819C41.1861 64.4155 40.5103 65.0908 39.6771 65.0908C38.8439 65.0908 38.1682 64.4155 38.1682 63.5819V54.5286C38.1682 53.6952 38.8437 53.02 39.6771 53.02H42.6197C45.1016 53.02 47.1209 55.0507 47.1209 57.5465C47.1209 59.019 46.4177 60.329 45.3314 61.1562L46.6835 62.5196ZM44.1032 57.5463C44.1032 56.7141 43.4376 56.0375 42.6199 56.0375H41.1863V59.055H42.6199C43.4376 59.055 44.1032 58.3783 44.1032 57.5463Z" fill="#FFCF5D"/>
<path d="M57.6579 64.9944C57.4833 65.06 57.3044 65.0908 57.1284 65.0908C56.5175 65.0908 55.9426 64.7173 55.7157 64.1115L55.5169 63.5817H51.9499L51.7513 64.1115C51.4583 64.8918 50.5891 65.2864 49.8084 64.9944C49.0286 64.702 48.6328 63.8324 48.9256 63.052L52.3205 53.9986C52.5412 53.4099 53.1044 53.02 53.7332 53.02C54.362 53.02 54.9249 53.4099 55.1459 53.9986L58.5406 63.052C58.8332 63.8322 58.438 64.7018 57.6579 64.9944ZM54.3847 60.564L53.733 58.8256L53.0811 60.564H54.3847Z" fill="#FFCF5D"/>
<path d="M70.005 54.5276V63.5809C70.005 64.2332 69.5857 64.8121 68.9654 65.0149C68.8106 65.0654 68.6527 65.0899 68.4959 65.0899C68.0243 65.0899 67.5688 64.8684 67.279 64.4735L63.3658 59.1372V63.5813C63.3658 64.4149 62.6899 65.0901 61.8567 65.0901C61.0235 65.0901 60.3479 64.4149 60.3479 63.5813V54.528C60.3479 53.8759 60.767 53.297 61.3873 53.0942C62.0074 52.891 62.6875 53.1099 63.0734 53.6356L66.9869 58.9718V54.5276C66.9869 53.6942 67.6623 53.0189 68.4955 53.0189C69.3291 53.0189 70.0048 53.6944 70.005 54.5276Z" fill="#FFCF5D"/>
<path d="M80.7229 54.5276C80.7229 55.3614 80.0475 56.0366 79.2141 56.0366H77.3026V63.5809C77.3026 64.4145 76.6271 65.0897 75.7937 65.0897C74.9605 65.0897 74.2849 64.4145 74.2849 63.5809V56.0366H72.3736C71.5402 56.0366 70.8646 55.3614 70.8646 54.5276C70.8646 53.6942 71.54 53.0189 72.3736 53.0189H79.2139C80.0473 53.0189 80.7229 53.6942 80.7229 54.5276Z" fill="#FFCF5D"/>
<path d="M89.2539 63.5809C89.2539 64.4145 88.5787 65.0897 87.7451 65.0897H83.1179C82.2847 65.0897 81.609 64.4145 81.609 63.5809V54.5276C81.609 53.6942 82.2845 53.0189 83.1179 53.0189H87.7451C88.5785 53.0189 89.2539 53.6942 89.2539 54.5276C89.2539 55.3614 88.5787 56.0366 87.7451 56.0366H84.6267V57.5455H86.538C87.3714 57.5455 88.0467 58.2207 88.0467 59.0541C88.0467 59.8879 87.3714 60.5632 86.538 60.5632H84.6267V62.072H87.7451C88.5787 62.072 89.2539 62.7473 89.2539 63.5809Z" fill="#FFCF5D"/>
<path d="M98.6169 63.5809C98.6169 64.4145 97.9416 65.0897 97.108 65.0897H92.4809C91.6477 65.0897 90.972 64.4145 90.972 63.5809V54.5276C90.972 53.6942 91.6475 53.0189 92.4809 53.0189H97.108C97.9414 53.0189 98.6169 53.6942 98.6169 54.5276C98.6169 55.3614 97.9416 56.0366 97.108 56.0366H93.9897V57.5455H95.901C96.7344 57.5455 97.4096 58.2207 97.4096 59.0541C97.4096 59.8879 96.7344 60.5632 95.901 60.5632H93.9897V62.072H97.108C97.9414 62.072 98.6169 62.7473 98.6169 63.5809Z" fill="#FFCF5D"/>
</g>
<defs>
<clipPath id="clip0">
<rect width="100" height="100" fill="white" transform="translate(0.5)"/>
</clipPath>
</defs>
</svg>
