<svg width="100" height="100" viewBox="0 0 100 100" fill="none" xmlns="http://www.w3.org/2000/svg">
<path d="M69.0459 23.1598L41.5436 63.0121L37.6461 94.8942L78.3729 99.999L85.1562 43.6617L69.0459 23.1598Z" fill="#FF641A"/>
<path d="M97.4293 2.50256C95.8869 0.960175 93.7637 0.105292 91.5904 0.00997934C89.2252 -0.0937316 86.8008 0.702753 85.001 2.50256L64.6713 22.8994L66.6861 24.9143L68.8141 27.0422L74.8512 20.936C80.5793 24.7231 88.3188 24.0416 93.2865 19.0738L97.4293 14.9311C100.857 11.5033 100.857 5.9301 97.4293 2.50256ZM93.2865 10.7881L89.1437 14.9309C86.44 17.6346 82.4061 18.2067 79.1387 16.6475L89.1437 6.64533C90.2881 5.501 92.1422 5.501 93.2865 6.64533C94.4281 7.78693 94.4281 9.6465 93.2865 10.7881Z" fill="#516373"/>
<path d="M74.8512 20.9358C80.5793 24.7229 88.3188 24.0415 93.2866 19.0737L97.4293 14.9309C100.857 11.5034 100.857 5.93013 97.4293 2.50259C95.8869 0.960205 93.7637 0.105322 91.5905 0.0100098L66.6862 24.9143L68.8141 27.0422L74.8512 20.9358ZM89.144 6.64536C90.2883 5.50103 92.1424 5.50103 93.2867 6.64536C94.4283 7.78696 94.4283 9.64653 93.2867 10.7881L89.144 14.9309C86.4403 17.6346 82.4063 18.2067 79.1389 16.6475L89.144 6.64536Z" fill="#3E4D59"/>
<path d="M69.5283 22.0693H40.6701L0 62.5982L14.5012 77.0994L29.0021 91.6006L69.5312 51.0432V22.0693H69.5283Z" fill="#FFE680"/>
<path d="M69.5313 51.0432V22.0693L14.5012 77.0994L29.0021 91.6006L69.5313 51.0432Z" fill="#FFC550"/>
<path d="M54.3115 41.5418L52.1852 39.4155L50.1688 37.399L45.6068 41.961C42.3479 40.426 38.3641 40.9227 35.6692 43.6131C32.2604 47.0219 32.2432 52.5537 35.6145 55.986C36.8973 57.2922 36.742 59.1141 35.6692 60.1869C34.5361 61.3199 32.6441 61.3637 31.4731 60.1274C30.3877 58.9815 30.4037 57.1668 31.5264 56.0442L27.3779 51.9014C24.6922 54.594 24.1951 58.5768 25.7303 61.8373L21.1666 66.401L23.183 68.4174L25.3094 70.5438L29.8709 65.9823C33.6711 67.7776 37.4287 66.7129 39.8119 64.3297C42.965 61.1766 43.5279 55.8289 39.7588 51.8418C38.6734 50.6934 38.6895 48.8815 39.8119 47.7588C40.932 46.633 42.7537 46.6199 43.8969 47.7037C45.1066 48.851 45.1055 50.7479 43.9547 51.9016L48.0975 56.0444C50.7904 53.3514 51.2889 49.366 49.7504 46.103L54.3115 41.5418Z" fill="#FF7B4A"/>
<path d="M43.9547 51.9016L48.0975 56.0444C50.7904 53.3514 51.2889 49.366 49.7504 46.103L54.3115 41.5418L52.1852 39.4155L43.8969 47.7037C45.1065 48.851 45.1055 50.7479 43.9547 51.9016Z" fill="#FF435B"/>
<path d="M29.8709 65.9825C33.6711 67.7778 37.4287 66.7131 39.8119 64.3299C42.9651 61.1768 43.5279 55.8291 39.7588 51.842L35.6145 55.9864C36.8973 57.2928 36.742 59.1145 35.6692 60.1874C34.5361 61.3204 32.6441 61.3641 31.4731 60.1278L23.183 68.4178L25.3094 70.5442L29.8709 65.9825Z" fill="#FF435B"/>
</svg>
