<svg width="40" height="40" viewBox="0 0 40 40" fill="none" xmlns="http://www.w3.org/2000/svg">
<g clip-path="url(#clip0)">
<path d="M24.7655 12.9688H13.0467C12.399 12.9688 11.8748 12.4446 11.8748 11.7969V7.10938C11.8748 6.46164 12.399 5.9375 13.0467 5.9375H24.7655C25.4132 5.9375 25.9373 6.46164 25.9373 7.10938V11.7969C25.9373 12.4446 25.4132 12.9688 24.7655 12.9688Z" fill="#FFD580"/>
<path d="M32.6253 1.59428C32.1675 1.13654 31.4259 1.13654 30.9681 1.59428L29.4529 3.10951L27.9377 1.59428C27.4799 1.13654 26.7383 1.13654 26.2806 1.59428C25.8228 2.05201 25.8228 2.79365 26.2806 3.25139L28.6243 5.59514C28.8532 5.82404 29.1531 5.9385 29.4528 5.9385C29.7526 5.9385 30.0525 5.82404 30.2813 5.59514L32.6251 3.25139C33.0831 2.79357 33.0831 2.05201 32.6253 1.59428Z" fill="#F24973"/>
<path d="M30.2815 5.59416L32.6252 3.25041C33.083 2.79268 33.083 2.05104 32.6252 1.5933C32.1675 1.13557 31.4258 1.13557 30.9681 1.5933L29.4529 3.10854V5.93752C29.7528 5.93752 30.0526 5.82307 30.2815 5.59416Z" fill="#D92C49"/>
<path d="M34.1405 12.9688H24.7655C24.1177 12.9688 23.5936 12.4446 23.5936 11.7969V4.76562C23.5936 4.11789 24.1177 3.59375 24.7655 3.59375H34.1405C34.7882 3.59375 35.3123 4.11789 35.3123 4.76562V11.7969C35.3123 12.4446 34.7882 12.9688 34.1405 12.9688Z" fill="#8AE68A"/>
<path d="M34.1405 3.59375H29.453V12.9688H34.1405C34.7882 12.9688 35.3123 12.4446 35.3123 11.7969V4.76562C35.3123 4.11789 34.7882 3.59375 34.1405 3.59375Z" fill="#60BF80"/>
<path d="M7.03586 10.6249L5.12055 3.59399H1.17188C0.524141 3.59399 0 3.06985 0 2.42212C0 1.77438 0.524141 1.25024 1.17188 1.25024H6.01547C6.54422 1.25024 7.00656 1.60384 7.14617 2.11431L9.70047 11.4893L7.03586 10.6249Z" fill="#80334D"/>
<path d="M31.7967 31.7188H13.0467C12.4013 31.7188 11.8749 31.1935 11.8749 30.5469C11.8749 29.9415 12.3281 29.4403 12.9278 29.3807C13.5709 29.3167 14.0424 28.7422 13.976 28.0979C13.9142 27.4547 13.3374 27.0072 12.6943 27.0484C10.8907 27.2281 9.53119 28.7318 9.53119 30.5468C9.53119 32.4854 11.1082 34.0625 13.0468 34.0625H31.7968C32.4445 34.0625 32.9687 33.5383 32.9687 32.8906C32.9687 32.2428 32.4445 31.7188 31.7967 31.7188Z" fill="#80334D"/>
<path d="M31.7967 31.7188H24.7655V34.0625H31.7967C32.4445 34.0625 32.9686 33.5384 32.9686 32.8906C32.9686 32.2429 32.4445 31.7188 31.7967 31.7188Z" fill="#59243F"/>
<path d="M13.0467 29.3521C12.5226 29.3521 12.0556 29.003 11.916 28.4892L7.03445 10.625H38.828C39.1713 10.625 39.4986 10.7761 39.7229 11.0393C39.9449 11.3025 40.041 11.6493 39.9838 11.9891L37.6401 26.0516C37.5531 26.5746 37.1274 26.9729 36.5987 27.0255C9.75859 29.6811 13.3281 29.3521 13.0467 29.3521Z" fill="#F24973"/>
<path d="M38.828 10.625H24.7655V28.1983C27.8429 27.8926 31.7117 27.5091 36.5987 27.0255C37.1274 26.9729 37.5532 26.5747 37.6401 26.0516L39.9839 11.9891C40.041 11.6492 39.945 11.3025 39.7229 11.0393C39.4986 10.7761 39.1713 10.625 38.828 10.625Z" fill="#D92C49"/>
<path d="M31.7967 38.75C29.8581 38.75 28.2811 37.173 28.2811 35.2344C28.2811 33.2958 29.8581 31.7188 31.7967 31.7188C33.7353 31.7188 35.3123 33.2958 35.3123 35.2344C35.3123 37.173 33.7353 38.75 31.7967 38.75Z" fill="#59243F"/>
<path d="M31.7967 36.4062C32.4439 36.4062 32.9686 35.8816 32.9686 35.2344C32.9686 34.5872 32.4439 34.0625 31.7967 34.0625C31.1495 34.0625 30.6248 34.5872 30.6248 35.2344C30.6248 35.8816 31.1495 36.4062 31.7967 36.4062Z" fill="#D9E5FF"/>
<path d="M15.3905 38.75C13.4519 38.75 11.8748 37.173 11.8748 35.2344C11.8748 33.2958 13.4519 31.7188 15.3905 31.7188C17.3291 31.7188 18.9061 33.2958 18.9061 35.2344C18.9061 37.173 17.3291 38.75 15.3905 38.75Z" fill="#80334D"/>
<path d="M15.3905 36.4062C16.0377 36.4062 16.5623 35.8816 16.5623 35.2344C16.5623 34.5872 16.0377 34.0625 15.3905 34.0625C14.7433 34.0625 14.2186 34.5872 14.2186 35.2344C14.2186 35.8816 14.7433 36.4062 15.3905 36.4062Z" fill="#ECF2FF"/>
<path d="M31.7967 22.3438C31.149 22.3438 30.6248 21.8196 30.6248 21.1719V16.4844C30.6248 15.8366 31.149 15.3125 31.7967 15.3125C32.4445 15.3125 32.9686 15.8366 32.9686 16.4844V21.1719C32.9686 21.8196 32.4445 22.3438 31.7967 22.3438Z" fill="#D9E5FF"/>
<path d="M17.7342 22.3438C17.0865 22.3438 16.5623 21.8196 16.5623 21.1719V16.4844C16.5623 15.8366 17.0865 15.3125 17.7342 15.3125C18.382 15.3125 18.9061 15.8366 18.9061 16.4844V21.1719C18.9061 21.8196 18.382 22.3438 17.7342 22.3438Z" fill="#ECF2FF"/>
<path d="M24.7655 22.3437C24.1177 22.3437 23.5936 21.8196 23.5936 21.1719V16.4844C23.5936 15.8366 24.1177 15.3125 24.7655 15.3125C25.4132 15.3125 25.9373 15.8366 25.9373 16.4844V21.1719C25.9373 21.8196 25.4132 22.3437 24.7655 22.3437Z" fill="#ECF2FF"/>
<path d="M25.9373 21.1719V16.4844C25.9373 15.8366 25.4132 15.3125 24.7655 15.3125V22.3437C25.4132 22.3437 25.9373 21.8196 25.9373 21.1719Z" fill="#D9E5FF"/>
</g>
<defs>
<clipPath id="clip0">
<rect width="40" height="40" fill="white"/>
</clipPath>
</defs>
</svg>
