<svg width="151" height="48" viewBox="0 0 151 48" fill="none" xmlns="http://www.w3.org/2000/svg">
<path d="M23.3505 0C14.3646 0 8.82981 5.20913 8.81451 5.21797C8.46773 6.86325 7.86456 9.25092 7.86456 11.0029C7.86456 24.2577 18.7397 35.0003 31.6359 35.0003C37.1317 35.0003 42.1812 32.3703 46.17 29.1048C46.1863 29.0025 46.701 26.8952 46.701 24C46.701 10.7451 36.2468 0 23.3505 0Z" fill="#AAD540"/>
<path d="M31.6339 34.3227C18.7378 34.3227 8.28339 23.5776 8.28339 10.3227C8.28339 8.57075 8.46773 6.86327 8.8145 5.2179C8.81395 5.21838 8.8135 5.21884 8.81294 5.21922C3.44279 9.61648 0 16.3946 0 24C0 31.0771 2.98025 37.4388 7.72133 41.8315L12.4975 45.2556C15.7399 47.0082 19.4326 48 23.3505 48C34.4462 48 43.873 40.0019 46.1698 29.1048C42.1812 32.3703 37.1297 34.3227 31.6339 34.3227Z" fill="#6EC17D"/>
<path d="M33.1576 8.33039C29.818 5.69095 25.6107 4.15429 21.0507 4.25048C19.1848 4.28983 17.3842 4.60587 15.6848 5.159L13.9971 6.647V36.6603H44.8007L46.6346 34.2102L46.6742 33.7224L33.1576 8.33039Z" fill="#DC1428"/>
<path d="M43.968 35.2772C41.2938 36.1511 38.5185 36.5025 35.6816 36.3253V36.3272C23.7869 35.5843 14.3635 25.4337 14.3635 13.0213C14.3635 10.2626 14.8303 7.61631 15.6849 5.15955C11.4581 6.53452 7.85886 9.37744 5.45037 13.0939L3.62463 31.3871C4.06371 32.5055 4.59958 33.5731 5.22154 34.5791C6.58264 36.7805 7.44972 39.2575 7.72131 41.8315C7.87488 41.9737 8.03037 42.114 8.1876 42.2521C8.79407 42.7849 10.7291 43.2863 11.3869 43.7539H44.0256L46.0973 36.9272C46.368 36.0351 46.5457 35.1248 46.6343 34.2103C45.7735 34.6209 44.8833 34.978 43.968 35.2772Z" fill="#BE1423"/>
<path d="M46.0675 28.6831L36.4829 11.687C35.5107 10.435 34.3925 9.30853 33.1566 8.33179L21.4546 14.2421V33.7225H46.6741C46.7796 32.0189 46.5739 30.3091 46.0675 28.6831Z" fill="#FF3C3C"/>
<path d="M21.4547 33.7225C26.679 33.7225 30.9141 29.3696 30.9141 24C30.9141 18.6304 26.679 14.2775 21.4547 14.2775C16.2304 14.2775 11.9953 18.6304 11.9953 24C11.9953 29.3696 16.2304 33.7225 21.4547 33.7225Z" fill="#FF3C3C"/>
<path d="M44.7771 25.7689L36.483 11.6872L36.4829 11.6871L22.6636 18.5273C21.9246 18.8931 21.4546 19.6618 21.4546 20.5049V26.4883C21.4546 27.7005 22.4108 28.6833 23.5903 28.6833H46.0668C45.7521 27.6723 45.3217 26.6934 44.7771 25.7689Z" fill="#373C41"/>
<path d="M44.7771 25.7689L43.818 24.1406L25.9957 16.8779L22.6637 18.5273C21.9247 18.8931 21.4547 19.6618 21.4547 20.5049V26.4882C21.4547 27.7005 22.4109 28.6833 23.5904 28.6833H46.0669C45.7521 27.6722 45.3217 26.6934 44.7771 25.7689Z" fill="#212426"/>
<path d="M36.4829 11.6871L36.3862 11.7349L33.6611 14.6931L30.2042 14.7949L25.9955 16.8781V21.9455C25.9955 23.1578 26.9517 24.1406 28.1311 24.1406H43.8179L41.7656 20.6563L40.0726 19.3091L38.8125 15.6425L36.4827 11.6871H36.4829Z" fill="#373C41"/>
<path d="M44.0255 42.252H21.2804C21.46 42.6574 21.568 43.1042 21.5883 43.5706C21.6149 44.1814 21.4395 44.7602 21.1304 45.2556H44.0256C44.8325 45.2556 45.4867 44.5832 45.4867 43.7538C45.4867 42.9245 44.8325 42.252 44.0255 42.252Z" fill="#373C41"/>
<path d="M21.5457 42.252H8.18762C9.5055 43.4097 10.9502 44.4192 12.4975 45.2556H21.5457C22.3525 45.2556 23.0068 44.5832 23.0068 43.7537C23.0068 42.9244 22.3525 42.252 21.5457 42.252Z" fill="#212426"/>
<path d="M25.1042 26.7085H19.8759C18.246 26.7085 16.9249 25.3505 16.9249 23.6754C16.9249 22.0002 18.2461 20.6422 19.8759 20.6422H25.1042V26.7085Z" fill="#212426"/>
<path d="M20.1419 25.0265C20.868 25.0265 21.4565 24.4216 21.4565 23.6754C21.4565 22.9292 20.868 22.3242 20.1419 22.3242C19.4158 22.3242 18.8273 22.9292 18.8273 23.6754C18.8273 24.4216 19.4158 25.0265 20.1419 25.0265Z" fill="#50555A"/>
<path d="M26.4272 28.6832H31.7771L36.3863 11.7347L30.2043 14.7948L26.4272 28.6832Z" fill="#50555A"/>
<path d="M27.6903 24.0385L26.4272 28.6833H31.7771L33.0402 24.0385H27.6903Z" fill="#373C41"/>
<path d="M33.0124 24.1405L36.3863 11.7349L30.2043 14.7948L27.6766 24.0895C27.8233 24.1223 27.9752 24.1405 28.1314 24.1405H33.0124Z" fill="#50555A"/>
<path d="M36.5293 24.0385L35.266 28.6833H39.5828L40.846 24.0385H36.5293Z" fill="#373C41"/>
<path d="M36.5015 24.1406H40.8183L41.7658 20.6563L38.8126 15.6425L36.5015 24.1406Z" fill="#50555A"/>
<path d="M8.70058 31.2037L7.43984 23.6485C7.35266 23.1263 7.52116 22.5933 7.89037 22.2235L13.2311 16.8728C14.1608 15.9413 13.6477 14.3184 12.3629 14.1265L5.45102 13.0942C3.40807 16.2467 2.22114 20.0272 2.2356 24.0739C2.24485 26.6588 2.73778 29.1263 3.62528 31.3867L6.42771 32.9011C7.57692 33.522 8.92008 32.5189 8.70058 31.2037Z" fill="#FFC305"/>
<path d="M62.4718 16.1145H63.65V26.1048C63.65 27.4525 63.27 28.5266 62.5098 29.3274C61.7561 30.1282 60.7426 30.5286 59.4695 30.5286C58.1266 30.5286 57.0941 30.1673 56.372 29.4446C55.6498 28.722 55.2888 27.7129 55.2888 26.4173H56.4575C56.4575 27.446 56.7203 28.2206 57.2461 28.7416C57.7719 29.2558 58.513 29.513 59.4695 29.513C60.3499 29.513 61.0656 29.2136 61.6167 28.6145C62.1741 28.0156 62.4592 27.2018 62.4718 26.1732V16.1145ZM74.5945 28.9954C73.9103 30.0176 72.8177 30.5286 71.3165 30.5286C70.2207 30.5286 69.3877 30.203 68.8176 29.5521C68.2476 28.8945 67.9562 27.9245 67.9435 26.6418V19.7669H69.0742V26.4954C69.0742 28.5072 69.8659 29.513 71.4494 29.513C73.0964 29.513 74.1384 28.8132 74.5754 27.4134V19.7669H75.7156V30.3333H74.6134L74.5945 28.9954ZM86.0045 27.6477C86.0045 27.0684 85.7764 26.6028 85.3203 26.2513C84.8705 25.8997 84.1896 25.6262 83.2775 25.4309C82.3654 25.2292 81.656 25.0013 81.1492 24.7473C80.6488 24.4869 80.2752 24.1712 80.028 23.8001C79.7874 23.429 79.667 22.9798 79.667 22.4525C79.667 21.6192 80.0059 20.9322 80.6837 20.3918C81.3615 19.845 82.2292 19.5716 83.287 19.5716C84.4335 19.5716 85.352 19.8645 86.0425 20.4505C86.7392 21.03 87.0875 21.7884 87.0875 22.7258H85.9474C85.9474 22.1074 85.694 21.593 85.1873 21.1829C84.6869 20.7728 84.0535 20.5677 83.287 20.5677C82.5396 20.5677 81.9379 20.7402 81.4817 21.0853C81.0321 21.4238 80.8072 21.8665 80.8072 22.4134C80.8072 22.9408 80.9941 23.3509 81.3677 23.6438C81.7478 23.9304 82.4351 24.194 83.4296 24.4349C84.4304 24.6757 85.1779 24.9329 85.6719 25.2064C86.1723 25.4798 86.5428 25.8085 86.7835 26.1926C87.0242 26.5768 87.1446 27.0422 87.1446 27.5892C87.1446 28.481 86.7931 29.194 86.09 29.7278C85.3932 30.2617 84.481 30.5286 83.3535 30.5286C82.1564 30.5286 81.184 30.2324 80.4367 29.64C79.6955 29.041 79.3249 28.2858 79.3249 27.3744H80.4651C80.5094 28.058 80.7882 28.5917 81.3013 28.9758C81.8207 29.3534 82.5047 29.5422 83.3535 29.5422C84.1454 29.5422 84.7851 29.3633 85.2728 29.0052C85.7606 28.6472 86.0045 28.1946 86.0045 27.6477ZM92.6447 17.0618V19.7669H94.773V20.724H92.6447V27.7649C92.6447 28.3509 92.746 28.787 92.9488 29.0736C93.1578 29.36 93.503 29.5032 93.9844 29.5032C94.1744 29.5032 94.4816 29.4706 94.9061 29.4056L94.9536 30.3626C94.6558 30.4733 94.2504 30.5286 93.7374 30.5286C92.9583 30.5286 92.3913 30.2974 92.0367 29.8353C91.6819 29.3665 91.5046 28.6797 91.5046 27.7748V20.724H89.6138V19.7669H91.5046V17.0618H92.6447ZM106.011 16.1145L111.113 28.6634L116.234 16.1145H117.793V30.3333H116.624V24.1418L116.719 17.7942L111.569 30.3333H110.667L105.536 17.843L105.631 24.1028V30.3333H104.462V16.1145H106.011ZM121.573 24.8938C121.573 23.8782 121.763 22.9636 122.143 22.1497C122.529 21.336 123.071 20.7044 123.768 20.2552C124.471 19.7994 125.266 19.5716 126.153 19.5716C127.521 19.5716 128.629 20.0664 129.478 21.056C130.327 22.039 130.751 23.3444 130.751 24.972V25.2161C130.751 26.2382 130.558 27.1594 130.171 27.9798C129.791 28.7936 129.253 29.4218 128.556 29.8645C127.86 30.3073 127.065 30.5286 126.172 30.5286C124.81 30.5286 123.701 30.037 122.846 29.054C121.997 28.0644 121.573 26.7558 121.573 25.1282V24.8938ZM122.713 25.2161C122.713 26.4792 123.03 27.5176 123.663 28.3313C124.303 29.1386 125.139 29.5422 126.172 29.5422C127.198 29.5422 128.027 29.1386 128.661 28.3313C129.301 27.5176 129.62 26.4466 129.62 25.1185V24.8938C129.62 24.0865 129.475 23.3476 129.183 22.677C128.892 22.0065 128.484 21.4889 127.958 21.1244C127.432 20.7532 126.83 20.5677 126.153 20.5677C125.139 20.5677 124.312 20.9778 123.673 21.7981C123.033 22.612 122.713 23.6797 122.713 25.0013V25.2161ZM136.043 17.0618V19.7669H138.17V20.724H136.043V27.7649C136.043 28.3509 136.144 28.787 136.346 29.0736C136.555 29.36 136.9 29.5032 137.381 29.5032C137.572 29.5032 137.88 29.4706 138.304 29.4056L138.352 30.3626C138.053 30.4733 137.649 30.5286 137.135 30.5286C136.355 30.5286 135.788 30.2974 135.434 29.8353C135.08 29.3665 134.902 28.6797 134.902 27.7748V20.724H133.011V19.7669H134.902V17.0618H136.043ZM140.878 24.8938C140.878 23.8782 141.067 22.9636 141.447 22.1497C141.834 21.336 142.376 20.7044 143.072 20.2552C143.776 19.7994 144.571 19.5716 145.457 19.5716C146.825 19.5716 147.933 20.0664 148.783 21.056C149.631 22.039 150.056 23.3444 150.056 24.972V25.2161C150.056 26.2382 149.862 27.1594 149.476 27.9798C149.096 28.7936 148.557 29.4218 147.861 29.8645C147.164 30.3073 146.369 30.5286 145.476 30.5286C144.114 30.5286 143.006 30.037 142.15 29.054C141.302 28.0644 140.878 26.7558 140.878 25.1282V24.8938ZM142.018 25.2161C142.018 26.4792 142.334 27.5176 142.967 28.3313C143.607 29.1386 144.444 29.5422 145.476 29.5422C146.502 29.5422 147.331 29.1386 147.966 28.3313C148.605 27.5176 148.924 26.4466 148.924 25.1185V24.8938C148.924 24.0865 148.779 23.3476 148.488 22.677C148.197 22.0065 147.788 21.4889 147.263 21.1244C146.736 20.7532 146.135 20.5677 145.457 20.5677C144.444 20.5677 143.617 20.9778 142.978 21.7981C142.337 22.612 142.018 23.6797 142.018 25.0013V25.2161Z" fill="black"/>
<path d="M151 35H46V36H151V35Z" fill="#BE1423"/>
</svg>
