<svg width="41" height="40" viewBox="0 0 41 40" fill="none" xmlns="http://www.w3.org/2000/svg">
<g clip-path="url(#clip0)">
<path d="M40.5 20C40.5 31.0457 31.5457 40 20.5 40C9.45429 40 0.5 31.0457 0.5 20C0.5 16.6212 1.33755 13.4384 2.81673 10.6473C4.4649 7.53877 6.90816 4.91592 9.87633 3.05224C12.9547 1.11837 16.5963 0 20.5 0C31.5457 0 40.5 8.95429 40.5 20Z" fill="#9FD3E6"/>
<path d="M37.1521 2.5971C36.7522 2.5971 36.3696 2.67065 36.0164 2.80404C35.5362 1.15914 34.385 0.00012207 33.0403 0.00012207C31.3295 0.00012207 29.9312 1.87612 29.8311 4.24257C27.9533 4.24673 26.4328 5.31629 26.4328 6.63531C26.4328 7.95686 27.9592 9.0282 29.8419 9.0282H33.0403H37.152C38.9279 9.0282 40.3676 7.58853 40.3676 5.81261C40.3676 4.03678 38.928 2.5971 37.1521 2.5971Z" fill="#E4E4E4"/>
<path d="M15.0494 6.91265C15.0494 8.97551 13.3776 10.6473 11.3147 10.6473H2.81674C4.4649 7.53878 6.90817 4.91592 9.87633 3.05225C9.9196 3.17225 9.95878 3.29388 9.99552 3.41878C10.4061 3.26367 10.8502 3.17796 11.3147 3.17796C13.3776 3.17796 15.0494 4.85061 15.0494 6.91265Z" fill="#E4E4E4"/>
<path d="M31.3147 36.8262C29.4674 38.0164 27.411 38.9103 25.2135 39.4409C25.091 39.4703 24.9678 39.4988 24.8445 39.5266C23.4461 39.8368 21.9923 40.0001 20.5 40.0001C19.0216 40.0001 17.5808 39.8401 16.1947 39.5348C14.7833 39.2254 13.4282 38.7666 12.1457 38.1764C11.291 37.7829 10.4682 37.3307 9.68369 36.8246L12.4257 30.6654C12.8698 29.6695 13.5808 29.0801 14.3384 29.0801H26.66C27.4176 29.0801 28.1278 29.6695 28.5718 30.6654L31.3147 36.8262Z" fill="#4F73AD"/>
<path d="M31.3147 36.8262C29.4673 38.0164 27.411 38.9103 25.2134 39.4409C25.091 39.4703 24.9677 39.4988 24.8445 39.5266C23.5996 39.8025 22.3106 39.9625 20.9898 39.9944C20.8273 39.9984 20.6641 40.0001 20.5 40.0001C20.3359 40.0001 20.1718 39.9984 20.0085 39.9944C18.7024 39.9625 17.4265 39.8058 16.1947 39.5348C14.7832 39.2254 13.4281 38.7666 12.1457 38.1764L15.7694 30.6654C16.2126 29.6695 16.9245 29.0801 17.6812 29.0801H26.66C27.4175 29.0801 28.1277 29.6695 28.5718 30.6654L31.3147 36.8262Z" fill="#6184C7"/>
<path d="M15.8769 23.8103H25.122V29.6242H15.8769V23.8103Z" fill="#6184C7"/>
<path d="M15.8769 23.8103H20.4994V29.6242H15.8769V23.8103Z" fill="#4F73AD"/>
<path d="M18.4393 24.7622H20.7281V29.6242H18.4393V24.7622Z" fill="#232C31"/>
<path d="M20.9898 29.6245V39.9943C20.8273 39.9984 20.6641 40 20.5 40C20.3359 40 20.1718 39.9984 20.0086 39.9943V29.6245H20.9898Z" fill="#4F73AD"/>
<path d="M25.6403 16.6836V21.3135C25.6251 21.3198 25.6103 21.3265 25.5955 21.3333C25.4418 21.4021 25.3012 21.4765 25.1757 21.5555C25.0883 21.6113 25.0051 21.6717 24.9256 21.7376C24.8623 21.3587 24.8293 20.9709 24.8293 20.5751C24.8293 19.8089 24.8276 18.6853 24.9087 17.5009C24.9223 17.3011 25.0164 17.1127 25.1732 16.989C25.174 16.9882 25.1749 16.9877 25.1757 16.9865C25.3012 16.8876 25.4418 16.7951 25.5955 16.7081C25.6102 16.6997 25.625 16.6916 25.6403 16.6836Z" fill="#3B494D"/>
<path d="M27.6255 15.9948V20.7618C27.4687 20.7902 27.3146 20.8201 27.1629 20.8526C26.9205 20.9045 26.6861 20.962 26.4634 21.0254V16.3237C26.6861 16.2447 26.9205 16.173 27.1629 16.1083C27.3146 16.0678 27.4687 16.0302 27.6255 15.9948Z" fill="#3B494D"/>
<path d="M29.3001 16.0025C29.3001 16.9981 29.3019 18.4946 29.1848 20.0442C29.0125 22.3252 28.5821 24.721 27.5083 25.7948C25.7047 27.5984 20.4998 27.5984 20.4998 27.5984C20.4998 27.5984 15.2943 27.5984 13.4907 25.7948C12.4169 24.721 11.9865 22.3252 11.8142 20.0436C11.6971 18.4941 11.6989 16.9975 11.6989 16.0025C11.6989 15.5273 11.7365 15.0616 11.8088 14.607C12.4775 10.4101 16.114 7.20166 20.4998 7.20166C24.8856 7.20166 28.5215 10.4101 29.1901 14.607C29.2625 15.0616 29.3001 15.5273 29.3001 16.0025Z" fill="#E4E4E4"/>
<path d="M20.4545 27.5978C19.9406 27.5931 15.1955 27.4996 13.4908 25.7948C12.417 24.721 11.9865 22.3252 11.8142 20.0436C11.6971 18.4941 11.6989 16.9975 11.6989 16.0025C11.6989 15.5273 11.7366 15.0616 11.8089 14.607C12.4776 10.4101 16.114 7.20166 20.4998 7.20166C17.8471 7.20166 15.6478 10.4101 15.2432 14.607C15.1997 15.0616 15.1767 15.5274 15.1767 16.0025C15.1767 16.9975 15.1756 18.4941 15.2467 20.0436C15.3508 22.3252 15.6107 24.721 16.2605 25.7948C17.2743 27.4708 20.0652 27.5896 20.4545 27.5978Z" fill="#B0B0B0"/>
<path d="M29.3001 16.0025C29.3001 16.9981 29.3019 18.4947 29.1848 20.0442C29.0954 20.14 29.0026 20.2289 28.9049 20.31C26.7421 22.113 20.4998 22.113 20.4998 22.113C20.4998 22.113 14.2569 22.113 12.0941 20.31C11.9964 20.2283 11.903 20.1395 11.8142 20.0436C11.6971 18.4941 11.6989 16.9975 11.6989 16.0025C11.6989 15.5273 11.7365 15.0616 11.8088 14.6071C11.8994 14.6858 11.9941 14.7588 12.0941 14.8253C14.2569 16.2684 20.4998 16.2684 20.4998 16.2684C20.4998 16.2684 26.742 16.2684 28.9049 14.8253C29.0043 14.7588 29.0995 14.6859 29.1901 14.6071C29.2625 15.0616 29.3001 15.5273 29.3001 16.0025Z" fill="#232C31"/>
<path d="M14.6084 20.2998C15.7043 20.2998 16.5927 19.4114 16.5927 18.3155C16.5927 17.2196 15.7043 16.3312 14.6084 16.3312C13.5125 16.3312 12.6241 17.2196 12.6241 18.3155C12.6241 19.4114 13.5125 20.2998 14.6084 20.2998Z" fill="#895B3D"/>
<path d="M26.3905 20.2998C27.4865 20.2998 28.3749 19.4114 28.3749 18.3155C28.3749 17.2196 27.4865 16.3312 26.3905 16.3312C25.2946 16.3312 24.4062 17.2196 24.4062 18.3155C24.4062 19.4114 25.2946 20.2998 26.3905 20.2998Z" fill="#895B3D"/>
<path d="M26.4239 12.8369V20.4202C26.4239 20.7701 26.3935 21.1123 26.3352 21.4454C23.7193 22.1132 20.4996 22.1132 20.4996 22.1132C20.4996 22.1132 17.3082 22.1132 14.6985 21.454C14.6392 21.1183 14.6082 20.773 14.6082 20.4201V12.8368H26.4239V12.8369Z" fill="#A37754"/>
<path d="M16.4606 21.7999C15.8719 21.7117 15.271 21.5986 14.6986 21.4541C14.6393 21.1185 14.6083 20.7732 14.6083 20.4207V12.8369H16.2988V20.4207C16.2988 20.8959 16.3551 21.3572 16.4606 21.7999Z" fill="#895B3D"/>
<path d="M20.5164 15.3871L19.4034 20.6H20.5164V15.3871Z" fill="#895B3D"/>
<path d="M19.0545 18.1322C19.0545 17.5223 18.56 17.0278 17.9501 17.0278C17.3402 17.0278 16.8458 17.5223 16.8458 18.1322H19.0545Z" fill="#895B3D"/>
<path d="M24.1864 18.1322C24.1864 17.5223 23.692 17.0278 23.0821 17.0278C22.4722 17.0278 21.9778 17.5223 21.9778 18.1322H24.1864Z" fill="#895B3D"/>
<path d="M17.9501 17.4802C18.3056 17.4802 18.5938 17.7684 18.5938 18.1239V19.1329C18.5938 19.4884 18.3056 19.7765 17.9501 19.7765C17.5946 19.7765 17.3065 19.4884 17.3065 19.1329V18.1239C17.3065 17.7684 17.5946 17.4802 17.9501 17.4802Z" fill="#2D2636"/>
<path d="M23.0821 17.4802C23.4376 17.4802 23.7257 17.7684 23.7257 18.1239V19.1329C23.7257 19.4884 23.4376 19.7765 23.0821 19.7765C22.7265 19.7765 22.4384 19.4884 22.4384 19.1329V18.1239C22.4385 17.7684 22.7266 17.4802 23.0821 17.4802Z" fill="#2D2636"/>
<path d="M29.7612 16.7178C29.7612 17.1929 29.7222 17.6583 29.6456 18.1131C29.5503 18.034 29.4509 17.9615 29.3455 17.8946C29.0519 17.7084 28.6858 17.5462 28.2721 17.4043C27.2788 17.0651 26.0082 16.8471 24.7826 16.7066C24.2553 16.6458 23.7376 16.6001 23.2534 16.5646C22.682 16.5231 22.1582 16.4972 21.7247 16.48C20.9793 16.4515 20.5002 16.4515 20.5002 16.4515C20.5002 16.4515 17.3022 16.4515 14.5962 16.9418C14.4081 16.9758 14.2229 17.0118 14.041 17.0508C13.75 17.1132 13.4685 17.1822 13.2013 17.2582C12.8418 17.3595 12.5087 17.4746 12.2131 17.604C12.1948 17.6115 12.1771 17.6197 12.1594 17.6278C11.9748 17.7104 11.806 17.7997 11.6554 17.8945C11.5504 17.9614 11.4505 18.0339 11.3552 18.113C11.2791 17.6582 11.2396 17.1928 11.2396 16.7177C11.2396 15.7979 11.2376 14.4492 11.3349 13.0274C11.3512 12.7875 11.4642 12.5614 11.6523 12.4129C11.6533 12.4119 11.6544 12.4113 11.6554 12.4098C11.806 12.2912 11.9748 12.1801 12.1594 12.0757C12.1771 12.0656 12.1949 12.056 12.2131 12.0463C12.5087 11.8846 12.8418 11.7416 13.2013 11.6143C13.4685 11.5195 13.75 11.4333 14.041 11.3557C14.223 11.3071 14.4081 11.2619 14.5962 11.2193C17.3023 10.6068 20.5002 10.6068 20.5002 10.6068C20.5002 10.6068 20.9794 10.6068 21.7247 10.6428C22.1582 10.6636 22.682 10.6955 23.2534 10.7478C23.7376 10.7919 24.2553 10.8492 24.7826 10.9248C26.0082 11.1002 27.2788 11.374 28.2721 11.7979C28.6858 11.9744 29.0519 12.1772 29.3455 12.4099C29.347 12.4115 29.3485 12.4124 29.35 12.4134C29.5376 12.5635 29.6497 12.7881 29.6665 13.027C29.7633 14.4502 29.7612 15.798 29.7612 16.7178Z" fill="#232C31"/>
<path d="M28.2709 11.7977V17.4043C27.2777 17.0649 26.0069 16.8468 24.7814 16.7062V10.9244C26.0069 11.1004 27.2777 11.3737 28.2709 11.7977Z" fill="#3B494D"/>
<path d="M23.2525 10.7475V16.5645C22.6809 16.5228 22.1569 16.4969 21.7235 16.4799V10.6428C22.1569 10.6634 22.6809 10.6957 23.2525 10.7475Z" fill="#3B494D"/>
<path d="M12.212 12.0463V17.604C12.1937 17.6116 12.176 17.6197 12.1583 17.6278C11.9737 17.7104 11.8049 17.7997 11.6543 17.8945C11.5493 17.9614 11.4495 18.0339 11.3541 18.113C11.278 17.6582 11.2385 17.1928 11.2385 16.7177C11.2385 15.7979 11.2365 14.4492 11.3339 13.0274C11.3501 12.7876 11.4632 12.5614 11.6513 12.4129C11.6522 12.4119 11.6533 12.4113 11.6543 12.4099C11.8049 12.2912 11.9737 12.1801 12.1583 12.0757C12.176 12.0655 12.1938 12.0559 12.212 12.0463Z" fill="#3B494D"/>
<path d="M14.5951 11.2192V16.9418C14.407 16.9757 14.2219 17.0117 14.0399 17.0508C13.7489 17.1131 13.4674 17.1821 13.2003 17.2581V11.6142C13.4674 11.5193 13.7489 11.4332 14.0399 11.3556C14.222 11.3069 14.407 11.2618 14.5951 11.2192Z" fill="#3B494D"/>
<path d="M20.4997 22.6203C20.2373 22.6203 14.0471 22.5985 11.7694 20.6997C11.6542 20.6032 11.5443 20.4987 11.4421 20.3884C11.2518 20.183 11.2641 19.8622 11.4695 19.6719C11.6749 19.4815 11.9957 19.4938 12.186 19.6992C12.2593 19.7782 12.3378 19.853 12.4195 19.9214C13.2267 20.5943 14.8659 21.1 17.1593 21.3832C18.9399 21.6031 20.4843 21.6061 20.4997 21.6061C20.515 21.6061 22.0593 21.603 23.8398 21.3832C26.133 21.1 27.7721 20.5942 28.5801 19.9207C28.6588 19.8552 28.7374 19.7806 28.8139 19.6985C29.005 19.4936 29.3259 19.4825 29.5306 19.6735C29.7353 19.8645 29.7465 20.1853 29.5556 20.3901C29.4499 20.5034 29.34 20.6077 29.229 20.7C26.9518 22.5984 20.7621 22.6203 20.4997 22.6203Z" fill="#6184C7"/>
<path d="M24.4184 36.267C25.5004 36.267 26.3776 35.3898 26.3776 34.3078C26.3776 33.2258 25.5004 32.3486 24.4184 32.3486C23.3364 32.3486 22.4592 33.2258 22.4592 34.3078C22.4592 35.3898 23.3364 36.267 24.4184 36.267Z" fill="#4F73AD"/>
</g>
<defs>
<clipPath id="clip0">
<rect width="40" height="40" fill="white" transform="translate(0.5)"/>
</clipPath>
</defs>
</svg>
